<svg width="108" height="32" viewBox="0 0 108 32" fill="none" xmlns="http://www.w3.org/2000/svg">
<path d="M31.657 10.714H36.1852C38.6935 10.714 39.9957 11.7615 39.9957 13.7284V13.8264C40.0315 14.4028 39.8629 14.9731 39.5208 15.4336C39.1786 15.8941 38.6855 16.2143 38.1312 16.3359C38.795 16.3954 39.409 16.7192 39.8398 17.237C40.2707 17.7549 40.4835 18.4249 40.4323 19.1016V19.1694C40.4323 21.3172 39.0486 22.4476 36.3924 22.4476H31.657V10.714ZM35.7635 15.5295C37.0213 15.5295 37.517 15.0698 37.517 14.0223V13.9545C37.517 12.9748 36.9695 12.5302 35.7487 12.5302H34.2023V15.5446L35.7635 15.5295ZM35.9854 20.6013C37.2729 20.6013 37.8574 20.0059 37.8574 18.9433V18.8755C37.8574 17.7903 37.2729 17.2402 35.8597 17.2402H34.2023V20.6088L35.9854 20.6013Z" fill="#1D2D35"/>
<path d="M41.1131 20.0587C41.1131 18.0541 42.9111 17.3005 45.4933 17.3005H46.4404V16.9614C46.4404 15.944 46.137 15.3863 45.0716 15.3863C44.8991 15.3655 44.7243 15.3808 44.5578 15.4314C44.3914 15.4819 44.2369 15.5666 44.1038 15.6803C43.9707 15.794 43.8619 15.9342 43.784 16.0923C43.7061 16.2504 43.6609 16.423 43.651 16.5997H41.4312C41.5792 14.5649 43.1552 13.6606 45.2195 13.6606C47.2839 13.6606 48.7415 14.5122 48.7415 16.8408V22.4326H46.47V21.4001C46.1849 21.8092 45.8006 22.136 45.3545 22.3487C44.9084 22.5614 44.4158 22.6526 43.9247 22.6134C42.4005 22.6134 41.1131 21.8598 41.1131 20.0587ZM46.4404 19.4332V18.6796H45.5377C44.1837 18.6796 43.3994 18.981 43.3994 19.8929C43.3994 20.5184 43.7693 20.9329 44.6202 20.9329C45.6487 20.963 46.4404 20.3828 46.4404 19.4332Z" fill="#1D2D35"/>
<path d="M49.7254 19.7422H51.9007C51.9969 20.4958 52.3669 20.963 53.3805 20.963C54.2832 20.963 54.705 20.6164 54.705 20.021C54.705 19.4257 54.2018 19.1845 52.9958 19.0112C50.7761 18.6645 49.8882 18.0089 49.8882 16.3359C49.8882 14.6629 51.5012 13.6606 53.2178 13.6606C55.0897 13.6606 56.4881 14.3539 56.6953 16.3208H54.557C54.4312 15.6124 54.039 15.2884 53.2399 15.2884C52.4409 15.2884 52.0487 15.6501 52.0487 16.1701C52.0487 16.6901 52.4483 16.9237 53.6691 17.1046C55.7778 17.4135 56.9395 17.9561 56.9395 19.7949C56.9395 21.6337 55.6224 22.6134 53.3953 22.6134C51.1682 22.6134 49.8068 21.5961 49.7254 19.7422Z" fill="#1D2D35"/>
<path d="M57.5388 18.25V18.1219C57.5107 17.533 57.6031 16.9445 57.81 16.3938C58.0169 15.8431 58.3339 15.3422 58.7408 14.9228C59.1477 14.5034 59.6357 14.1746 60.1739 13.9573C60.7121 13.7401 61.2887 13.639 61.8672 13.6606C64.0426 13.6606 65.9737 14.9568 65.9737 18.0239V18.6796H59.9287C59.9879 20.1039 60.75 20.9404 62.0152 20.9404C63.0955 20.9404 63.6282 20.4656 63.7762 19.7422H65.9959C65.7221 21.596 64.2719 22.6285 61.9708 22.6285C59.3886 22.6134 57.5388 20.9931 57.5388 18.25ZM63.7022 17.2176C63.6282 15.9214 62.9771 15.3336 61.8672 15.3336C61.3676 15.3312 60.8865 15.5261 60.525 15.8774C60.1635 16.2288 59.9497 16.7091 59.9287 17.2176H63.7022Z" fill="#1D2D35"/>
<path d="M66.5878 18.25V18.1218C66.5596 17.5316 66.6524 16.9418 66.8602 16.39C67.068 15.8383 67.3863 15.3366 67.7948 14.917C68.2033 14.4973 68.6932 14.1689 69.2331 13.9526C69.7731 13.7363 70.3513 13.6368 70.9311 13.6605C72.8844 13.6605 74.6824 14.5272 74.8969 16.9914H72.6772C72.6625 16.7799 72.6061 16.5736 72.5115 16.3847C72.4169 16.1958 72.286 16.0282 72.1266 15.8918C71.9672 15.7554 71.7825 15.6531 71.5835 15.5908C71.3844 15.5286 71.1752 15.5077 70.9681 15.5294C69.762 15.5294 68.9555 16.4488 68.9555 18.0917V18.2198C68.9555 19.9456 69.6954 20.8273 71.0199 20.8273C71.2452 20.8405 71.4709 20.8079 71.6837 20.7314C71.8966 20.6549 72.0924 20.5361 72.2597 20.3818C72.427 20.2275 72.5625 20.0408 72.6583 19.8327C72.7542 19.6245 72.8084 19.399 72.8178 19.1694H74.9265C74.8008 21.2041 73.3506 22.6133 70.9015 22.6133C68.4524 22.6133 66.5878 21.0534 66.5878 18.25Z" fill="#1D2D35"/>
<path d="M75.4668 20.0587C75.4668 18.0541 77.2648 17.3005 79.8396 17.3005H80.7941V16.9614C80.7941 15.944 80.4833 15.3863 79.4253 15.3863C79.2517 15.3632 79.0753 15.3769 78.9071 15.4264C78.7389 15.476 78.5825 15.5603 78.4478 15.6742C78.3131 15.7881 78.2029 15.929 78.1241 16.0883C78.0453 16.2475 77.9996 16.4216 77.9899 16.5996H75.7702C75.9181 14.5649 77.4941 13.6606 79.5511 13.6606C81.608 13.6606 83.0804 14.5121 83.0804 16.8408V22.4325H80.8089V21.4001C80.5238 21.8092 80.1395 22.136 79.6934 22.3487C79.2473 22.5613 78.7547 22.6525 78.2636 22.6134C76.7838 22.6134 75.4668 21.8598 75.4668 20.0587ZM80.7941 19.4332V18.6796H79.9062C78.5522 18.6796 77.7605 18.981 77.7605 19.8929C77.7605 20.5184 78.1378 20.9329 78.9887 20.9329C80.032 20.963 80.8237 20.3827 80.8237 19.4332H80.7941Z" fill="#1D2D35"/>
<path d="M84.7228 13.8263H87.0535V15.1376C87.3076 14.6717 87.6816 14.2852 88.1353 14.0196C88.589 13.7541 89.1052 13.6195 89.6284 13.6304C90.1277 13.5897 90.6265 13.7145 91.0505 13.9861C91.4745 14.2577 91.801 14.6616 91.9812 15.1376C92.292 14.6649 92.7143 14.2792 93.2094 14.0159C93.7045 13.7525 94.2566 13.62 94.8151 13.6304C96.3763 13.6304 97.5823 14.6327 97.5823 16.9086V22.4024H95.2664V17.2025C95.2664 16.1022 94.7855 15.6124 93.942 15.6124C93.7176 15.6024 93.4938 15.6419 93.2857 15.7281C93.0777 15.8143 92.8904 15.9453 92.7366 16.112C92.5827 16.2786 92.466 16.4772 92.3944 16.694C92.3228 16.9108 92.298 17.1408 92.3216 17.3683V22.4325H89.9983V17.2025C89.9983 16.1022 89.5026 15.6124 88.6813 15.6124C88.4563 15.6013 88.2316 15.64 88.0227 15.7257C87.8137 15.8114 87.6255 15.9422 87.4708 16.109C87.3162 16.2758 87.1988 16.4747 87.1268 16.6921C87.0547 16.9095 87.0298 17.1401 87.0535 17.3683V22.4325H84.7228V13.8263Z" fill="#1D2D35"/>
<path d="M99.1807 13.8263H101.519V15.1753C101.797 14.7035 102.191 14.3132 102.662 14.0424C103.133 13.7717 103.664 13.6298 104.205 13.6304C106.269 13.6304 107.904 15.1904 107.904 18.0239V18.1596C107.904 20.9931 106.328 22.5832 104.205 22.5832C103.664 22.6058 103.129 22.4773 102.655 22.2116C102.182 21.9458 101.789 21.5531 101.519 21.076V25.3565H99.1807V13.8263ZM105.507 18.0465C105.507 16.3057 104.671 15.4541 103.494 15.4541C102.318 15.4541 101.437 16.3208 101.437 18.0465V18.1746C101.437 19.8929 102.244 20.7294 103.517 20.7294C104.789 20.7294 105.507 19.8552 105.507 18.2048V18.0465Z" fill="#1D2D35"/>
<path fill-rule="evenodd" clip-rule="evenodd" d="M14.3582 6.61813C7.79266 6.61813 4.36867 12.2822 2.45158 17.8183C2.21984 18.4875 1.49932 18.8387 0.842267 18.6027C0.372311 18.4338 0.0621064 18.0103 0.00834487 17.538C-0.0130587 17.3499 0.00618399 17.1541 0.0721745 16.9635C2.01738 11.3463 5.99243 4.04834 14.3582 4.04834C18.7309 4.04834 21.8608 6.99476 23.885 10.5345C25.9146 14.0836 26.9966 18.4781 27.2405 22.0263C27.258 22.2813 27.2005 22.5359 27.0752 22.7574C25.9029 24.83 23.9526 26.1807 21.7295 27.008C19.5119 27.8333 16.9432 28.1704 14.3683 28.1712C12.1807 28.206 10.0114 27.7601 8.00817 26.8638C6.0018 25.9661 4.20935 24.6378 2.75333 22.9697C2.44359 22.6149 2.35124 22.1149 2.51319 21.6697L2.51414 21.6671L2.51595 21.6621L2.52212 21.6453L2.54446 21.5854C2.56371 21.534 2.59163 21.4604 2.62761 21.3676C2.6995 21.1823 2.80386 20.9199 2.93579 20.6059C3.1985 19.9806 3.57592 19.1379 4.02929 18.2871C4.4767 17.4475 5.02687 16.5448 5.64557 15.8337C6.20959 15.1854 7.08629 14.3956 8.20842 14.3878L8.21697 14.3878C9.00989 14.3878 9.66123 14.7576 10.1301 15.113C10.6027 15.4713 11.0318 15.9267 11.3758 16.2974C11.4152 16.3399 11.4536 16.3813 11.4909 16.4216C11.8112 16.7675 12.0562 17.0321 12.2889 17.2302C12.315 17.2524 12.3391 17.2721 12.361 17.2893C12.4367 17.2106 12.527 17.1073 12.6309 16.9761C13.0007 16.5092 13.416 15.8516 13.8179 15.1475C14.2145 14.4527 14.5754 13.7528 14.8386 13.2234C14.9697 12.9596 15.0755 12.7402 15.1482 12.5876C15.1845 12.5113 15.2125 12.4518 15.2311 12.4119L15.2519 12.3672L15.2569 12.3566L15.2579 12.3543C15.5537 11.7118 16.3049 11.4348 16.9357 11.736C17.5666 12.0372 17.8383 12.8022 17.5426 13.4448L17.5398 13.4507L17.5333 13.4648L17.509 13.5169C17.488 13.5618 17.4575 13.6267 17.4185 13.7087C17.3405 13.8726 17.2282 14.1053 17.0896 14.3841C16.8133 14.9399 16.4284 15.687 15.9991 16.4391C15.5751 17.1819 15.0844 17.9712 14.5947 18.5895C14.3519 18.8961 14.0766 19.2028 13.7789 19.444C13.5158 19.6572 13.0516 19.972 12.4566 19.972C11.6698 19.972 11.0499 19.5246 10.671 19.2021C10.3139 18.8981 9.95717 18.5118 9.65752 18.1873C9.61796 18.1445 9.57941 18.1028 9.54198 18.0624C9.18671 17.6795 8.89633 17.3813 8.62347 17.1744C8.38432 16.9931 8.26223 16.9632 8.22716 16.9585C8.22716 16.9585 8.22464 16.9594 8.22243 16.9602C8.18386 16.9741 7.95213 17.0573 7.53395 17.538C7.10037 18.0363 6.65676 18.7436 6.2468 19.5129C5.84281 20.2711 5.49929 21.0364 5.25539 21.6169C5.22397 21.6917 5.19428 21.7632 5.16643 21.831C6.27671 22.9578 7.58386 23.8672 9.02292 24.511C10.6968 25.2599 12.5096 25.6319 14.3376 25.6016L14.3582 25.6014C16.7447 25.6014 19.0036 25.2865 20.8637 24.5943C22.5749 23.9575 23.8803 23.0294 24.6917 21.7972C24.4167 18.6396 23.4292 14.8434 21.7048 11.8279C19.9 8.67188 17.451 6.61813 14.3582 6.61813ZM12.1536 17.4719C12.1536 17.4719 12.1591 17.4677 12.1697 17.4621C12.1588 17.4697 12.1536 17.4719 12.1536 17.4719Z" fill="#1D2D35"/>
</svg>
